<svg id="svg" version="1.1" xmlns="http://www.w3.org/2000/svg" xmlns:xlink="http://www.w3.org/1999/xlink" width="400" height="400" viewBox="0, 0, 400,400"><g id="svgg"><path id="path0" d="M214.687 47.500 C 214.780 97.793,214.741 96.673,216.450 98.000 C 217.928 99.148,218.400 101.317,218.400 106.963 L 218.400 112.702 230.145 112.995 C 242.334 113.300,243.600 113.211,243.600 112.053 C 243.600 111.180,244.500 109.207,244.900 109.203 C 245.065 109.201,245.200 108.955,245.200 108.655 C 245.200 108.355,246.055 107.312,247.100 106.336 C 258.997 95.233,276.798 109.830,267.899 123.392 C 261.463 133.200,247.157 130.890,243.426 119.439 C 243.196 118.731,242.872 118.697,238.689 118.938 C 236.220 119.080,230.645 119.197,226.300 119.198 L 218.400 119.200 218.400 144.600 L 218.400 170.000 222.500 170.001 C 224.755 170.002,230.245 170.120,234.700 170.265 L 242.800 170.527 242.802 163.963 C 242.804 157.725,242.849 157.343,243.720 156.255 L 244.636 155.111 259.523 155.175 C 273.535 155.236,274.424 155.197,274.642 154.520 C 279.369 139.864,300.995 142.714,300.999 157.993 C 301.003 171.930,282.150 176.446,275.700 164.054 C 275.205 163.103,274.800 162.071,274.800 161.762 C 274.800 161.291,272.725 161.200,261.975 161.200 L 249.151 161.200 249.240 168.006 C 249.326 174.646,249.305 174.836,248.394 175.806 L 247.461 176.800 232.923 176.800 L 218.386 176.800 218.493 186.300 L 218.600 195.800 230.200 196.108 C 242.373 196.431,243.600 196.364,243.600 195.376 C 243.600 190.687,251.590 185.162,257.586 185.705 C 274.840 187.270,273.800 212.833,256.485 212.794 C 250.652 212.781,243.600 207.429,243.600 203.016 C 243.600 202.333,231.398 202.126,222.662 202.661 L 218.400 202.922 218.400 206.500 C 218.400 209.880,218.339 210.138,217.300 211.142 C 215.503 212.880,214.800 214.516,214.800 216.965 L 214.800 219.207 216.070 217.993 C 217.759 216.379,218.177 216.628,218.320 219.332 L 218.440 221.600 232.762 221.600 L 247.083 221.600 248.142 222.581 C 248.724 223.120,249.216 223.795,249.235 224.081 C 249.254 224.366,249.241 227.407,249.205 230.837 L 249.139 237.075 261.417 237.307 C 274.027 237.545,274.800 237.502,274.800 236.569 C 274.800 236.031,275.793 234.098,277.073 232.145 C 278.782 229.536,283.796 227.200,287.687 227.200 C 299.639 227.200,305.616 241.256,297.213 249.600 C 290.341 256.423,279.710 254.573,275.422 245.808 L 274.320 243.557 260.060 243.615 C 241.372 243.692,242.822 244.424,242.809 234.900 L 242.800 228.400 230.604 228.400 L 218.408 228.400 218.304 247.900 L 218.200 267.400 217.254 267.534 C 216.733 267.607,216.112 267.472,215.874 267.234 C 215.073 266.433,214.800 266.788,214.800 268.629 C 214.800 270.778,215.456 271.600,217.171 271.600 L 218.400 271.600 218.400 275.339 L 218.400 279.078 222.900 279.337 C 232.622 279.897,243.202 279.672,243.450 278.900 C 247.638 265.845,264.925 265.609,269.652 278.542 C 273.170 288.168,262.915 298.792,253.006 295.786 C 248.573 294.442,243.600 289.459,243.600 286.362 C 243.600 285.629,243.125 285.600,231.000 285.600 L 218.400 285.600 218.400 291.222 C 218.400 296.997,217.587 299.911,215.300 302.329 C 214.906 302.745,214.801 312.977,214.803 350.729 L 214.805 398.600 216.038 399.302 C 216.716 399.688,217.458 399.888,217.687 399.746 C 217.917 399.604,219.638 399.525,221.512 399.570 C 223.501 399.618,225.026 399.482,225.174 399.242 C 225.313 399.016,226.636 398.799,228.114 398.758 C 229.591 398.717,230.800 398.530,230.800 398.342 C 230.800 398.154,231.779 398.000,232.976 398.000 C 234.173 398.000,235.264 397.820,235.400 397.600 C 235.536 397.380,236.436 397.200,237.400 397.200 C 238.364 397.200,239.264 397.020,239.400 396.800 C 239.536 396.580,240.447 396.400,241.424 396.400 C 242.401 396.400,243.200 396.220,243.200 396.000 C 243.200 395.780,243.909 395.600,244.776 395.600 C 245.643 395.600,246.464 395.420,246.600 395.200 C 246.736 394.980,247.557 394.800,248.424 394.800 C 249.291 394.800,250.000 394.620,250.000 394.400 C 250.000 394.180,250.619 394.000,251.376 394.000 C 252.133 394.000,252.864 393.820,253.000 393.600 C 253.136 393.380,253.689 393.200,254.229 393.200 C 254.769 393.200,255.523 393.038,255.905 392.839 C 256.287 392.640,257.410 392.259,258.400 391.992 C 259.390 391.724,260.470 391.408,260.800 391.289 C 261.130 391.170,261.529 391.099,261.686 391.132 C 261.843 391.164,262.473 390.997,263.086 390.760 C 264.339 390.275,265.294 390.013,266.900 389.714 C 267.505 389.601,268.000 389.350,268.000 389.155 C 268.000 388.960,268.349 388.800,268.776 388.800 C 269.203 388.800,269.664 388.620,269.800 388.400 C 269.936 388.180,270.391 388.000,270.811 388.000 C 271.232 388.000,272.217 387.640,273.000 387.200 C 273.783 386.760,274.689 386.400,275.012 386.400 C 275.335 386.400,275.600 386.254,275.600 386.076 C 275.600 385.897,276.500 385.521,277.600 385.239 C 278.700 384.957,279.600 384.563,279.600 384.363 C 279.600 384.163,279.865 384.000,280.188 384.000 C 280.511 384.000,281.417 383.640,282.200 383.200 C 282.983 382.760,283.889 382.400,284.212 382.400 C 284.535 382.400,284.800 382.220,284.800 382.000 C 284.800 381.780,285.184 381.600,285.653 381.600 C 286.122 381.600,286.842 381.212,287.253 380.739 C 287.755 380.160,288.002 380.062,288.006 380.439 C 288.010 380.801,288.116 380.848,288.306 380.571 C 288.468 380.335,288.926 380.021,289.325 379.874 C 289.752 379.716,289.931 379.411,289.760 379.135 C 289.558 378.809,289.692 378.750,290.195 378.943 C 290.929 379.225,292.707 377.837,292.096 377.459 C 291.933 377.359,291.846 349.485,291.903 315.518 L 292.005 253.759 293.403 253.254 C 294.171 252.976,294.800 252.580,294.800 252.374 C 294.800 252.168,295.056 252.000,295.368 252.000 C 295.681 252.000,296.761 251.176,297.768 250.168 C 298.776 249.161,299.600 248.081,299.600 247.768 C 299.600 247.456,299.780 247.200,300.000 247.200 C 300.220 247.200,300.400 246.928,300.400 246.595 C 300.400 246.262,300.558 245.677,300.751 245.295 C 302.473 241.886,302.339 238.361,300.329 234.171 C 299.039 231.482,294.818 227.600,293.185 227.600 C 292.016 227.600,292.000 227.218,292.000 198.947 L 292.000 171.559 293.300 171.015 C 294.015 170.716,294.991 170.140,295.470 169.735 C 295.948 169.331,296.893 168.552,297.570 168.004 C 298.246 167.457,298.800 166.782,298.800 166.504 C 298.800 166.227,298.952 166.000,299.137 166.000 C 300.646 166.000,302.577 157.918,301.642 155.519 C 301.445 155.013,301.056 153.835,300.778 152.900 C 300.500 151.965,300.121 151.200,299.936 151.200 C 299.751 151.200,299.600 150.963,299.600 150.674 C 299.600 149.989,296.011 146.400,295.326 146.400 C 295.037 146.400,294.800 146.254,294.800 146.075 C 294.800 145.896,294.169 145.502,293.397 145.199 L 291.995 144.649 292.097 83.924 C 292.154 50.526,292.054 23.200,291.876 23.200 C 291.698 23.200,291.669 23.011,291.812 22.781 C 291.969 22.527,292.255 22.503,292.536 22.718 C 293.420 23.399,294.476 23.628,294.299 23.100 C 294.207 22.825,293.877 22.583,293.566 22.561 C 292.484 22.487,291.600 21.910,291.568 21.257 C 291.547 20.805,291.471 20.764,291.327 21.124 C 291.164 21.532,290.948 21.496,290.359 20.962 C 289.941 20.585,289.600 20.401,289.600 20.554 C 289.600 20.707,289.349 20.599,289.042 20.316 C 288.735 20.032,288.547 19.695,288.624 19.567 C 288.702 19.438,288.506 19.333,288.190 19.333 C 287.662 19.333,286.507 18.830,282.262 16.753 C 281.416 16.339,280.471 16.000,280.162 16.000 C 279.853 16.000,279.600 15.843,279.600 15.652 C 279.600 15.461,278.785 15.076,277.790 14.797 C 276.794 14.518,275.883 14.135,275.766 13.945 C 275.649 13.755,275.203 13.600,274.776 13.600 C 274.349 13.600,274.000 13.453,274.000 13.272 C 274.000 13.092,273.089 12.696,271.975 12.393 C 270.861 12.090,269.860 11.697,269.751 11.521 C 269.642 11.344,269.113 11.200,268.576 11.200 C 268.039 11.200,267.600 11.020,267.600 10.800 C 267.600 10.580,267.186 10.400,266.680 10.400 C 266.174 10.400,265.544 10.184,265.280 9.920 C 265.016 9.656,264.800 9.557,264.800 9.700 C 264.800 9.842,264.162 9.693,263.382 9.367 C 262.603 9.041,261.805 8.873,261.610 8.994 C 261.415 9.114,261.142 9.030,261.004 8.807 C 260.866 8.583,260.234 8.400,259.600 8.400 C 258.966 8.400,258.336 8.220,258.200 8.000 C 258.064 7.780,257.423 7.600,256.776 7.600 C 256.129 7.600,255.600 7.420,255.600 7.200 C 255.600 6.980,255.049 6.800,254.376 6.800 C 253.663 6.800,253.256 6.633,253.400 6.400 C 253.549 6.158,253.004 6.000,252.024 6.000 C 251.131 6.000,250.400 5.820,250.400 5.600 C 250.400 5.380,249.590 5.200,248.600 5.200 C 247.610 5.200,246.800 5.020,246.800 4.800 C 246.800 4.580,246.091 4.400,245.224 4.400 C 244.357 4.400,243.536 4.220,243.400 4.000 C 243.264 3.780,242.443 3.600,241.576 3.600 C 240.709 3.600,240.000 3.420,240.000 3.200 C 240.000 2.980,238.999 2.800,237.776 2.800 C 236.553 2.800,235.647 2.648,235.761 2.463 C 235.876 2.277,234.762 2.087,233.285 2.040 C 231.808 1.993,230.429 1.784,230.220 1.577 C 230.011 1.370,228.695 1.200,227.296 1.200 C 225.368 1.200,224.825 1.079,225.053 0.700 C 225.278 0.325,225.193 0.330,224.712 0.719 C 224.355 1.009,223.971 1.077,223.846 0.874 C 223.722 0.674,222.283 0.530,220.648 0.555 C 219.014 0.580,217.752 0.477,217.845 0.327 C 217.938 0.176,217.474 0.068,216.814 0.087 C 215.817 0.116,215.719 0.199,216.233 0.575 C 216.769 0.967,216.741 1.029,216.027 1.029 C 215.572 1.029,215.200 0.797,215.200 0.514 C 215.200 0.231,215.065 -0.000,214.900 -0.000 C 214.735 -0.000,214.639 21.375,214.687 47.500 M293.120 377.280 C 293.493 377.653,293.707 377.653,294.080 377.280 C 294.453 376.907,294.347 376.800,293.600 376.800 C 292.853 376.800,292.747 376.907,293.120 377.280 " stroke="none" fill="#6f96ce" fill-rule="evenodd"></path><path id="path1" d="M180.000 84.999 C 166.798 87.973,156.706 98.134,154.377 110.800 C 154.114 112.230,153.843 113.611,153.774 113.868 C 153.706 114.126,152.603 114.457,151.325 114.605 C 129.573 117.116,116.849 139.098,126.010 158.338 C 127.547 161.566,127.683 162.393,126.676 162.406 C 125.794 162.417,119.174 165.948,116.622 167.769 C 102.741 177.675,95.868 195.168,99.950 210.200 C 103.387 222.856,115.399 236.181,126.289 239.419 C 126.339 239.433,125.746 240.908,124.973 242.696 C 116.859 261.464,129.641 282.777,150.560 285.359 C 153.157 285.680,153.451 285.994,153.768 288.798 C 156.858 316.112,196.569 325.377,213.784 302.800 C 215.242 300.888,215.895 299.791,217.650 296.305 C 217.843 295.923,218.000 293.268,218.000 290.405 L 218.000 285.200 230.769 285.200 L 243.538 285.200 244.027 286.700 C 248.725 301.117,269.800 297.578,269.800 282.372 C 269.800 267.898,250.120 264.304,244.249 277.706 L 243.239 280.011 230.719 279.906 L 218.200 279.800 218.085 276.306 C 217.945 272.089,218.308 272.367,211.399 271.199 C 201.070 269.453,195.434 272.672,190.823 282.948 C 189.646 285.572,189.135 286.000,187.177 286.000 C 184.520 286.000,184.261 283.379,186.507 279.245 C 192.498 268.218,200.394 263.722,210.800 265.412 C 213.110 265.786,215.673 266.181,216.496 266.288 L 217.992 266.483 218.096 247.142 L 218.200 227.800 230.600 227.800 L 243.000 227.800 243.200 234.690 C 243.478 244.254,241.601 243.287,259.745 243.220 L 274.394 243.166 275.486 245.483 C 281.616 258.488,300.832 254.645,300.901 240.400 C 300.971 225.996,279.254 222.312,275.144 236.031 L 274.670 237.611 261.835 237.505 L 249.000 237.400 248.953 231.000 C 248.895 223.155,248.976 223.795,247.925 222.816 C 247.077 222.026,246.589 222.000,232.525 222.000 L 218.000 222.000 218.000 220.000 C 218.000 217.464,218.143 217.420,214.107 221.196 C 208.485 226.456,204.705 227.849,197.000 227.502 C 188.202 227.106,181.426 224.343,182.152 221.448 C 182.646 219.479,183.903 219.330,188.290 220.719 C 201.066 224.765,205.577 223.219,216.322 211.109 L 218.000 209.218 218.000 205.609 L 218.000 202.000 230.726 202.000 L 243.453 202.000 244.404 204.300 C 246.999 210.575,254.360 214.049,260.676 211.978 C 270.218 208.850,273.138 196.406,265.896 189.731 C 264.263 188.226,263.431 187.740,260.281 186.456 C 254.610 184.144,246.389 188.419,244.097 194.873 L 243.412 196.800 230.699 196.800 L 217.986 196.800 218.093 186.700 L 218.200 176.600 232.800 176.503 L 247.400 176.405 248.231 175.382 C 249.015 174.418,249.052 173.993,248.877 167.937 C 248.728 162.750,248.799 161.446,249.246 161.163 C 249.551 160.970,255.337 160.809,262.105 160.806 L 274.410 160.800 275.386 163.007 C 281.226 176.211,300.971 172.336,300.901 158.000 C 300.831 143.511,280.070 140.029,275.181 153.686 L 274.649 155.173 259.738 155.286 C 241.509 155.425,243.470 154.426,243.200 163.713 L 243.000 170.600 230.500 170.706 L 218.000 170.811 218.000 144.806 L 218.000 118.800 230.754 118.800 L 243.507 118.800 244.415 121.036 C 249.901 134.554,269.839 130.437,269.774 115.800 C 269.708 100.961,248.621 97.603,244.027 111.700 L 243.538 113.200 230.769 113.200 L 218.000 113.200 217.994 108.300 C 217.986 101.615,217.220 99.699,212.619 94.852 C 204.743 86.555,191.225 82.472,180.000 84.999 M160.879 114.900 C 161.226 115.175,161.735 116.390,162.010 117.600 C 163.892 125.891,171.420 130.398,181.704 129.392 C 186.480 128.924,187.120 128.985,188.214 130.013 C 192.732 134.258,180.454 136.884,170.800 133.737 C 162.744 131.112,156.800 124.158,156.800 117.358 C 156.800 115.012,159.196 113.568,160.879 114.900 M138.653 163.100 C 145.148 169.465,152.723 169.393,162.982 162.869 C 166.592 160.574,168.310 160.605,169.190 162.984 C 170.781 167.284,156.607 173.697,146.803 173.113 C 139.365 172.669,130.197 164.660,133.429 161.429 C 134.678 160.179,136.154 160.652,138.653 163.100 M186.080 181.762 C 191.289 183.142,193.081 185.389,190.725 187.584 C 189.642 188.593,188.839 188.594,185.838 187.590 C 177.503 184.802,170.031 188.770,164.937 198.690 C 161.679 205.036,157.077 203.040,160.133 196.607 C 165.809 184.655,175.682 179.006,186.080 181.762 M135.177 213.118 C 143.182 221.085,150.915 222.612,158.125 217.652 C 161.097 215.607,163.200 216.276,163.200 219.267 C 163.200 223.456,151.006 227.198,144.171 225.106 C 135.220 222.367,125.236 212.381,128.889 209.823 C 130.438 208.737,131.148 209.109,135.177 213.118 M152.676 238.900 C 152.881 239.175,153.287 240.390,153.578 241.600 C 155.607 250.040,161.019 253.373,172.600 253.314 C 179.785 253.278,180.400 253.478,180.400 255.853 C 180.400 260.512,163.355 259.763,155.981 254.780 C 149.040 250.089,145.495 238.400,151.013 238.400 C 151.722 238.400,152.470 238.625,152.676 238.900 " stroke="none" fill="#fafbfb" fill-rule="evenodd"></path><path id="path2" d="M289.200 20.467 C 289.200 20.723,289.320 20.813,289.468 20.666 C 289.615 20.519,290.065 20.697,290.468 21.061 C 290.870 21.426,291.200 21.581,291.200 21.406 C 291.200 21.048,289.961 20.032,289.500 20.013 C 289.335 20.006,289.200 20.210,289.200 20.467 M291.200 22.038 C 290.703 22.401,290.729 22.434,291.351 22.231 C 291.764 22.096,292.378 22.214,292.716 22.493 C 293.224 22.912,293.296 22.896,293.132 22.400 C 292.881 21.640,291.978 21.471,291.200 22.038 M291.812 22.781 C 291.669 23.011,291.698 23.200,291.876 23.200 C 292.054 23.200,292.154 50.526,292.097 83.924 L 291.995 144.649 293.397 145.199 C 294.169 145.502,294.800 145.896,294.800 146.075 C 294.800 146.254,295.037 146.400,295.326 146.400 C 296.011 146.400,299.600 149.989,299.600 150.674 C 299.600 150.963,299.751 151.200,299.936 151.200 C 300.121 151.200,300.500 151.965,300.778 152.900 C 301.056 153.835,301.445 155.013,301.642 155.519 C 302.577 157.918,300.646 166.000,299.137 166.000 C 298.952 166.000,298.800 166.227,298.800 166.504 C 298.800 166.782,298.246 167.457,297.570 168.004 C 296.893 168.552,295.948 169.331,295.470 169.735 C 294.991 170.140,294.015 170.716,293.300 171.015 L 292.000 171.559 292.000 198.947 C 292.000 227.218,292.016 227.600,293.185 227.600 C 294.818 227.600,299.039 231.482,300.329 234.171 C 302.339 238.361,302.473 241.886,300.751 245.295 C 300.558 245.677,300.400 246.262,300.400 246.595 C 300.400 246.928,300.220 247.200,300.000 247.200 C 299.780 247.200,299.600 247.456,299.600 247.768 C 299.600 248.508,296.108 252.000,295.368 252.000 C 295.056 252.000,294.800 252.168,294.800 252.374 C 294.800 252.580,294.171 252.976,293.403 253.254 L 292.005 253.759 291.903 315.499 C 291.838 354.105,291.942 377.382,292.180 377.620 C 292.420 377.860,292.390 378.000,292.100 378.000 C 291.847 378.000,291.456 377.685,291.232 377.300 C 290.862 376.664,290.823 376.677,290.812 377.440 C 290.803 378.103,291.033 378.272,291.900 378.240 C 292.689 378.211,292.984 378.002,292.944 377.500 C 292.909 377.054,293.171 376.800,293.668 376.800 C 294.160 376.800,294.354 376.984,294.193 377.300 C 294.053 377.575,294.297 377.395,294.734 376.900 C 295.595 375.924,296.201 375.695,295.794 376.500 C 295.655 376.775,295.797 376.688,296.110 376.306 C 296.423 375.925,296.796 375.730,296.940 375.873 C 297.083 376.016,297.200 375.923,297.200 375.667 C 297.200 375.410,297.470 375.200,297.800 375.200 C 298.130 375.200,298.400 375.009,298.400 374.776 C 298.400 374.543,298.569 374.457,298.775 374.585 C 298.982 374.712,299.297 374.582,299.475 374.295 C 299.654 374.007,300.160 373.770,300.600 373.768 C 301.093 373.765,301.349 373.540,301.267 373.182 C 301.193 372.862,301.259 372.726,301.413 372.880 C 301.777 373.244,305.600 371.246,305.600 370.691 C 305.600 370.458,305.709 370.376,305.842 370.509 C 305.976 370.642,306.527 370.309,307.068 369.768 C 307.609 369.227,308.201 368.877,308.384 368.990 C 308.567 369.103,308.824 368.915,308.955 368.572 C 309.087 368.230,309.342 368.040,309.522 368.152 C 309.702 368.263,310.362 367.915,310.987 367.377 C 311.613 366.840,312.249 366.400,312.401 366.400 C 312.553 366.400,313.088 366.044,313.590 365.608 C 314.092 365.173,314.688 364.931,314.913 365.070 C 315.149 365.216,315.202 365.127,315.038 364.862 C 314.869 364.588,315.007 364.400,315.376 364.400 C 315.719 364.400,316.000 364.220,316.000 364.000 C 316.000 363.780,316.281 363.600,316.624 363.600 C 316.967 363.600,317.136 363.420,317.000 363.200 C 316.864 362.980,316.999 362.800,317.301 362.800 C 317.602 362.800,318.231 362.444,318.699 362.009 C 319.166 361.573,319.772 361.168,320.046 361.109 C 320.321 361.049,321.180 360.325,321.956 359.500 C 322.732 358.675,323.562 358.000,323.800 358.000 C 324.037 358.000,325.024 357.284,325.991 356.408 C 326.958 355.533,327.818 354.884,327.900 354.967 C 327.983 355.050,328.714 354.451,329.525 353.636 C 330.336 352.821,331.674 351.698,332.498 351.141 C 333.322 350.585,333.877 350.010,333.731 349.865 C 333.586 349.719,333.671 349.600,333.920 349.600 C 334.351 349.600,341.190 342.945,340.998 342.712 C 340.948 342.650,341.333 342.189,341.854 341.686 C 342.374 341.183,342.800 340.861,342.800 340.971 C 342.800 341.341,350.281 333.691,351.238 332.341 C 351.761 331.604,352.957 330.230,353.895 329.289 C 354.833 328.349,355.600 327.423,355.600 327.232 C 355.600 327.041,356.140 326.307,356.800 325.600 C 357.460 324.893,358.000 324.054,358.000 323.734 C 358.000 323.414,358.180 323.264,358.400 323.400 C 358.620 323.536,358.800 323.439,358.800 323.184 C 358.800 322.929,359.340 322.217,360.000 321.600 C 360.660 320.983,361.200 320.231,361.200 319.928 C 361.200 319.625,361.560 319.117,362.000 318.800 C 362.440 318.483,362.800 317.993,362.800 317.712 C 362.800 317.430,362.980 317.200,363.200 317.200 C 363.420 317.200,363.600 316.970,363.600 316.688 C 363.600 316.407,363.960 315.917,364.400 315.600 C 364.840 315.283,365.200 314.743,365.200 314.400 C 365.200 314.057,365.560 313.517,366.000 313.200 C 366.440 312.883,366.800 312.343,366.800 312.000 C 366.800 311.657,367.160 311.117,367.600 310.800 C 368.040 310.483,368.400 309.903,368.400 309.512 C 368.400 309.120,368.580 308.800,368.800 308.800 C 369.020 308.800,369.200 308.519,369.200 308.176 C 369.200 307.833,369.380 307.664,369.600 307.800 C 369.820 307.936,370.000 307.844,370.000 307.596 C 370.000 307.347,370.540 306.359,371.200 305.400 C 371.860 304.441,372.400 303.463,372.400 303.228 C 372.400 302.993,372.580 302.800,372.800 302.800 C 373.020 302.800,373.200 302.440,373.200 302.000 C 373.200 301.560,373.345 301.200,373.523 301.200 C 373.828 301.200,375.200 298.457,375.200 297.849 C 375.200 297.694,375.560 297.180,376.000 296.708 C 376.440 296.236,376.800 295.613,376.800 295.325 C 376.800 295.036,376.980 294.800,377.200 294.800 C 377.420 294.800,377.600 294.440,377.600 294.000 C 377.600 293.560,377.780 293.200,378.000 293.200 C 378.220 293.200,378.400 292.855,378.400 292.433 C 378.400 292.012,378.537 291.607,378.704 291.533 C 378.871 291.460,379.789 289.780,380.745 287.800 C 381.700 285.820,382.643 283.887,382.841 283.505 C 383.038 283.123,383.200 282.538,383.200 282.205 C 383.200 281.872,383.380 281.600,383.600 281.600 C 383.820 281.600,384.000 281.240,384.000 280.800 C 384.000 280.360,384.180 280.000,384.400 280.000 C 384.620 280.000,384.800 279.651,384.800 279.224 C 384.800 278.797,384.980 278.336,385.200 278.200 C 385.420 278.064,385.600 277.513,385.600 276.976 C 385.600 276.439,385.780 276.000,386.000 276.000 C 386.220 276.000,386.400 275.640,386.400 275.200 C 386.400 274.760,386.580 274.400,386.800 274.400 C 387.020 274.400,387.200 274.038,387.200 273.595 C 387.200 273.152,387.359 272.477,387.553 272.095 C 388.029 271.160,388.618 269.693,389.200 268.000 C 389.464 267.230,389.823 266.240,389.997 265.800 C 390.715 263.982,391.600 260.645,391.600 259.754 C 391.600 259.229,391.780 258.800,392.000 258.800 C 392.220 258.800,392.400 258.170,392.400 257.400 C 392.400 256.630,392.580 256.000,392.800 256.000 C 393.020 256.000,393.200 255.471,393.200 254.824 C 393.200 254.177,393.380 253.536,393.600 253.400 C 393.820 253.264,394.000 252.533,394.000 251.776 C 394.000 251.019,394.180 250.400,394.400 250.400 C 394.620 250.400,394.800 249.680,394.800 248.800 C 394.800 247.920,394.980 247.200,395.200 247.200 C 395.420 247.200,395.600 246.491,395.600 245.624 C 395.600 244.757,395.780 243.936,396.000 243.800 C 396.220 243.664,396.400 242.753,396.400 241.776 C 396.400 240.799,396.580 240.000,396.800 240.000 C 397.020 240.000,397.200 239.111,397.200 238.024 C 397.200 236.937,397.380 235.936,397.600 235.800 C 397.820 235.664,398.000 234.584,398.000 233.400 C 398.000 232.216,398.180 231.136,398.400 231.000 C 398.620 230.864,398.800 229.518,398.800 228.010 C 398.800 226.171,398.965 225.212,399.300 225.100 C 399.693 224.969,399.800 219.591,399.800 200.000 C 399.800 180.409,399.693 175.031,399.300 174.900 C 398.965 174.788,398.800 173.829,398.800 171.990 C 398.800 170.482,398.620 169.136,398.400 169.000 C 398.180 168.864,398.000 167.784,398.000 166.600 C 398.000 165.416,397.820 164.336,397.600 164.200 C 397.380 164.064,397.200 163.063,397.200 161.976 C 397.200 160.889,397.020 160.000,396.800 160.000 C 396.580 160.000,396.400 159.201,396.400 158.224 C 396.400 157.247,396.220 156.336,396.000 156.200 C 395.780 156.064,395.600 155.243,395.600 154.376 C 395.600 153.509,395.420 152.800,395.200 152.800 C 394.980 152.800,394.800 152.080,394.800 151.200 C 394.800 150.320,394.620 149.600,394.400 149.600 C 394.180 149.600,394.000 148.981,394.000 148.224 C 394.000 147.467,393.820 146.736,393.600 146.600 C 393.380 146.464,393.200 145.823,393.200 145.176 C 393.200 144.529,393.020 144.000,392.800 144.000 C 392.580 144.000,392.400 143.370,392.400 142.600 C 392.400 141.830,392.220 141.200,392.000 141.200 C 391.780 141.200,391.600 140.771,391.600 140.246 C 391.600 139.222,390.560 135.447,389.963 134.305 C 389.763 133.923,389.600 133.336,389.600 133.000 C 389.600 132.664,389.441 132.077,389.247 131.695 C 389.052 131.313,388.671 130.460,388.400 129.800 C 388.129 129.140,387.748 128.287,387.553 127.905 C 387.359 127.523,387.200 126.848,387.200 126.405 C 387.200 125.962,387.020 125.600,386.800 125.600 C 386.580 125.600,386.400 125.240,386.400 124.800 C 386.400 124.360,386.220 124.000,386.000 124.000 C 385.780 124.000,385.600 123.561,385.600 123.024 C 385.600 122.487,385.420 121.936,385.200 121.800 C 384.980 121.664,384.800 121.203,384.800 120.776 C 384.800 120.349,384.620 120.000,384.400 120.000 C 384.180 120.000,384.000 119.640,384.000 119.200 C 384.000 118.760,383.820 118.400,383.600 118.400 C 383.380 118.400,383.200 118.040,383.200 117.600 C 383.200 117.160,383.020 116.800,382.800 116.800 C 382.580 116.800,382.400 116.350,382.400 115.800 C 382.400 115.250,382.220 114.800,382.000 114.800 C 381.780 114.800,381.600 114.555,381.600 114.256 C 381.600 113.599,379.124 108.655,378.700 108.467 C 378.535 108.393,378.400 107.988,378.400 107.567 C 378.400 107.145,378.220 106.800,378.000 106.800 C 377.780 106.800,377.600 106.440,377.600 106.000 C 377.600 105.560,377.420 105.200,377.200 105.200 C 376.980 105.200,376.800 104.964,376.800 104.675 C 376.800 104.387,376.469 103.796,376.065 103.362 C 375.661 102.928,375.215 102.116,375.075 101.557 C 374.935 100.999,374.381 99.894,373.844 99.103 C 373.307 98.312,372.973 97.560,373.101 97.433 C 373.229 97.305,373.123 97.200,372.867 97.200 C 372.610 97.200,372.400 97.007,372.400 96.772 C 372.400 96.537,371.860 95.559,371.200 94.600 C 370.540 93.641,370.000 92.703,370.000 92.516 C 370.000 92.329,369.640 91.917,369.200 91.600 C 368.760 91.283,368.400 90.743,368.400 90.400 C 368.400 90.057,368.040 89.517,367.600 89.200 C 367.160 88.883,366.800 88.343,366.800 88.000 C 366.800 87.657,366.440 87.117,366.000 86.800 C 365.560 86.483,365.200 85.943,365.200 85.600 C 365.200 85.257,364.840 84.717,364.400 84.400 C 363.960 84.083,363.600 83.620,363.600 83.371 C 363.600 83.122,363.060 82.354,362.400 81.663 C 361.740 80.972,361.200 80.208,361.200 79.964 C 361.200 79.720,360.660 79.017,360.000 78.400 C 359.340 77.783,358.800 77.071,358.800 76.816 C 358.800 76.561,358.620 76.464,358.400 76.600 C 358.180 76.736,358.000 76.589,358.000 76.274 C 358.000 75.959,357.370 75.013,356.600 74.172 C 355.830 73.331,355.200 72.485,355.200 72.290 C 355.200 72.096,354.519 71.276,353.687 70.469 C 352.855 69.661,351.738 68.380,351.205 67.623 C 350.198 66.193,342.800 58.716,342.800 59.128 C 342.800 59.257,342.485 58.957,342.100 58.460 C 340.827 56.819,333.600 49.654,332.288 48.733 C 331.580 48.235,330.325 47.154,329.500 46.330 C 328.675 45.505,327.995 44.959,327.988 45.116 C 327.981 45.272,327.792 45.085,327.568 44.700 C 327.344 44.315,326.939 44.000,326.668 44.000 C 326.398 44.000,325.924 43.650,325.615 43.221 C 325.307 42.793,324.907 42.534,324.727 42.645 C 324.547 42.756,324.400 42.657,324.400 42.424 C 324.400 42.191,324.175 42.045,323.900 42.100 C 323.625 42.155,323.445 41.975,323.500 41.700 C 323.555 41.425,323.394 41.200,323.143 41.200 C 322.892 41.200,322.171 40.660,321.541 40.001 C 320.910 39.341,320.254 38.846,320.082 38.901 C 319.910 38.955,319.282 38.514,318.686 37.919 C 318.090 37.325,316.927 36.521,316.101 36.133 C 315.276 35.745,314.152 35.016,313.604 34.514 C 313.056 34.011,312.499 33.600,312.366 33.600 C 312.233 33.600,311.601 33.150,310.962 32.600 C 310.323 32.051,309.615 31.601,309.388 31.600 C 309.162 31.600,308.724 31.250,308.415 30.821 C 308.107 30.393,307.722 30.125,307.559 30.225 C 307.397 30.325,307.001 30.144,306.680 29.823 C 306.358 29.501,305.984 29.350,305.848 29.486 C 305.711 29.622,305.600 29.557,305.600 29.341 C 305.600 29.126,304.970 28.702,304.200 28.400 C 303.430 28.098,302.800 27.593,302.800 27.279 C 302.800 26.904,302.525 26.779,302.000 26.916 C 301.561 27.031,301.083 26.934,300.939 26.701 C 300.773 26.433,300.870 26.396,301.200 26.600 C 301.539 26.810,301.627 26.767,301.449 26.479 C 301.298 26.235,300.910 26.136,300.587 26.260 C 300.264 26.384,300.000 26.300,300.000 26.074 C 300.000 25.847,299.370 25.454,298.600 25.200 C 297.830 24.946,297.200 24.605,297.200 24.443 C 297.200 24.281,296.491 23.770,295.626 23.308 C 294.481 22.697,294.111 22.624,294.270 23.038 C 294.500 23.638,293.488 23.451,292.536 22.718 C 292.255 22.503,291.969 22.527,291.812 22.781 " stroke="none" fill="#45a1d8" fill-rule="evenodd"></path><path id="path3" d="M134.446 9.900 C 134.421 10.175,134.029 10.400,133.576 10.400 C 133.123 10.400,132.864 10.580,133.000 10.800 C 133.249 11.203,132.758 11.347,131.535 11.227 C 131.170 11.191,130.754 11.350,130.612 11.581 C 130.469 11.811,129.813 12.000,129.153 12.000 C 128.455 12.000,128.056 12.167,128.200 12.400 C 128.432 12.776,127.631 12.977,126.495 12.829 C 126.217 12.792,125.883 13.040,125.753 13.379 C 125.623 13.718,125.382 13.912,125.217 13.811 C 125.053 13.709,124.224 13.980,123.375 14.413 C 122.526 14.846,121.520 15.200,121.139 15.200 C 120.759 15.200,120.336 15.380,120.200 15.600 C 120.064 15.820,119.603 16.000,119.176 16.000 C 118.749 16.000,118.400 16.180,118.400 16.400 C 118.400 16.620,118.040 16.800,117.600 16.800 C 117.160 16.800,116.800 16.980,116.800 17.200 C 116.800 17.420,116.440 17.600,116.000 17.600 C 115.560 17.600,115.200 17.791,115.200 18.024 C 115.200 18.257,115.032 18.344,114.828 18.217 C 114.623 18.091,114.340 18.173,114.200 18.400 C 114.060 18.627,113.777 18.709,113.572 18.583 C 113.368 18.456,113.200 18.543,113.200 18.776 C 113.200 19.009,112.840 19.200,112.400 19.200 C 111.960 19.200,111.600 19.380,111.600 19.600 C 111.600 19.820,111.351 20.000,111.046 20.000 C 110.216 20.000,108.373 21.040,108.673 21.339 C 108.816 21.483,108.453 21.600,107.867 21.600 C 107.280 21.600,106.800 21.780,106.800 22.000 C 106.800 22.220,106.564 22.400,106.275 22.400 C 105.987 22.400,105.364 22.760,104.892 23.200 C 104.420 23.640,103.756 24.000,103.417 24.000 C 103.078 24.000,102.800 24.180,102.800 24.400 C 102.800 24.620,102.440 24.800,102.000 24.800 C 101.560 24.800,101.200 24.980,101.200 25.200 C 101.200 25.420,101.065 25.562,100.900 25.516 C 100.587 25.429,97.549 26.794,97.200 27.179 C 96.718 27.711,94.397 29.200,94.050 29.200 C 93.839 29.200,93.607 29.367,93.533 29.570 C 93.460 29.774,93.138 29.999,92.818 30.070 C 92.498 30.142,91.829 30.591,91.331 31.069 C 90.833 31.547,90.060 32.054,89.613 32.196 C 89.166 32.338,88.800 32.622,88.800 32.827 C 88.800 33.032,88.480 33.200,88.088 33.200 C 87.697 33.200,87.117 33.560,86.800 34.000 C 86.483 34.440,85.991 34.800,85.708 34.800 C 85.425 34.800,84.628 35.340,83.937 36.000 C 83.246 36.660,82.478 37.200,82.229 37.200 C 81.980 37.200,81.517 37.560,81.200 38.000 C 80.883 38.440,80.273 38.800,79.845 38.800 C 79.417 38.800,79.177 38.910,79.311 39.044 C 79.611 39.344,77.465 41.200,76.819 41.200 C 76.562 41.200,76.464 41.380,76.600 41.600 C 76.736 41.820,76.567 42.000,76.224 42.000 C 75.881 42.000,75.600 42.210,75.600 42.467 C 75.600 42.723,75.491 42.824,75.358 42.691 C 75.224 42.558,74.676 42.888,74.139 43.424 C 73.603 43.961,73.030 44.400,72.867 44.400 C 72.703 44.400,71.586 45.324,70.385 46.454 C 69.183 47.583,67.570 48.978,66.800 49.554 C 66.030 50.129,63.828 52.220,61.906 54.200 C 57.740 58.493,58.685 57.551,53.700 62.376 C 51.445 64.559,49.600 66.497,49.600 66.684 C 49.600 66.871,48.430 68.252,47.000 69.754 C 45.570 71.257,44.400 72.638,44.400 72.825 C 44.400 73.011,43.942 73.622,43.382 74.182 C 42.822 74.742,42.489 75.200,42.643 75.200 C 42.797 75.200,42.535 75.536,42.061 75.947 C 41.588 76.358,41.200 76.858,41.200 77.059 C 41.200 77.259,40.840 77.683,40.400 78.000 C 39.960 78.317,39.600 78.817,39.600 79.112 C 39.600 79.406,39.420 79.536,39.200 79.400 C 38.980 79.264,38.800 79.484,38.800 79.888 C 38.800 80.293,38.440 80.883,38.000 81.200 C 37.560 81.517,37.200 82.107,37.200 82.512 C 37.200 82.916,37.020 83.136,36.800 83.000 C 36.580 82.864,36.400 82.994,36.400 83.288 C 36.400 83.583,36.040 84.083,35.600 84.400 C 35.160 84.717,34.800 85.257,34.800 85.600 C 34.800 85.943,34.440 86.483,34.000 86.800 C 33.560 87.117,33.200 87.697,33.200 88.088 C 33.200 88.480,33.050 88.800,32.868 88.800 C 32.685 88.800,32.281 89.295,31.970 89.900 C 31.660 90.505,31.133 91.270,30.800 91.600 C 30.467 91.930,29.926 92.740,29.597 93.400 C 29.269 94.060,28.685 94.949,28.300 95.375 C 27.915 95.802,27.600 96.387,27.600 96.675 C 27.600 96.964,27.455 97.200,27.277 97.200 C 26.916 97.200,25.377 100.430,25.513 100.900 C 25.561 101.065,25.420 101.200,25.200 101.200 C 24.980 101.200,24.800 101.560,24.800 102.000 C 24.800 102.440,24.620 102.800,24.400 102.800 C 24.180 102.800,23.997 103.205,23.994 103.700 C 23.989 104.428,23.914 104.485,23.600 104.000 C 23.258 103.471,23.212 103.474,23.206 104.020 C 23.198 104.842,22.280 106.793,21.900 106.797 C 21.735 106.799,21.600 107.160,21.600 107.600 C 21.600 108.040,21.465 108.401,21.300 108.403 C 20.941 108.407,20.000 110.344,20.000 111.080 C 20.000 111.366,19.820 111.600,19.600 111.600 C 19.380 111.600,19.200 111.971,19.200 112.424 C 19.200 112.877,19.020 113.136,18.800 113.000 C 18.580 112.864,18.399 113.078,18.399 113.476 C 18.398 113.874,18.038 114.789,17.599 115.510 C 17.159 116.230,16.800 117.175,16.800 117.610 C 16.800 118.044,16.620 118.400,16.400 118.400 C 16.180 118.400,16.000 118.760,16.000 119.200 C 16.000 119.640,15.853 120.000,15.672 120.000 C 15.492 120.000,15.100 120.900,14.800 122.000 C 14.500 123.100,14.108 124.000,13.928 124.000 C 13.747 124.000,13.600 124.360,13.600 124.800 C 13.600 125.240,13.420 125.600,13.200 125.600 C 12.980 125.600,12.800 126.039,12.800 126.576 C 12.800 127.113,12.656 127.642,12.479 127.751 C 12.303 127.860,11.910 128.861,11.607 129.975 C 11.304 131.089,10.908 132.000,10.728 132.000 C 10.547 132.000,10.400 132.362,10.400 132.805 C 10.400 133.248,10.237 133.923,10.037 134.305 C 9.446 135.435,8.400 139.217,8.400 140.222 C 8.400 140.734,8.220 141.264,8.000 141.400 C 7.780 141.536,7.600 142.166,7.600 142.800 C 7.600 143.434,7.420 144.064,7.200 144.200 C 6.980 144.336,6.800 144.977,6.800 145.624 C 6.800 146.271,6.620 146.800,6.400 146.800 C 6.180 146.800,6.000 147.430,6.000 148.200 C 6.000 148.970,5.820 149.600,5.600 149.600 C 5.380 149.600,5.200 150.320,5.200 151.200 C 5.200 152.080,5.020 152.800,4.800 152.800 C 4.580 152.800,4.400 153.509,4.400 154.376 C 4.400 155.243,4.220 156.064,4.000 156.200 C 3.780 156.336,3.600 157.236,3.600 158.200 C 3.600 159.164,3.420 160.064,3.200 160.200 C 2.980 160.336,2.800 161.247,2.800 162.224 C 2.800 163.201,2.620 164.000,2.400 164.000 C 2.174 164.000,2.000 165.133,2.000 166.600 C 2.000 168.067,1.826 169.200,1.600 169.200 C 1.376 169.200,1.200 170.307,1.200 171.720 C 1.200 173.203,0.994 174.446,0.700 174.740 C -0.031 175.471,-0.031 224.856,0.700 225.100 C 1.036 225.212,1.200 226.176,1.200 228.033 C 1.200 229.611,1.372 230.800,1.600 230.800 C 1.826 230.800,2.000 231.933,2.000 233.400 C 2.000 234.867,2.174 236.000,2.400 236.000 C 2.620 236.000,2.800 236.799,2.800 237.776 C 2.800 238.753,2.980 239.664,3.200 239.800 C 3.420 239.936,3.600 240.836,3.600 241.800 C 3.600 242.764,3.780 243.664,4.000 243.800 C 4.220 243.936,4.400 244.757,4.400 245.624 C 4.400 246.491,4.580 247.200,4.800 247.200 C 5.020 247.200,5.200 247.920,5.200 248.800 C 5.200 249.680,5.380 250.400,5.600 250.400 C 5.820 250.400,6.000 251.030,6.000 251.800 C 6.000 252.570,6.180 253.200,6.400 253.200 C 6.620 253.200,6.800 253.729,6.800 254.376 C 6.800 255.023,6.980 255.664,7.200 255.800 C 7.420 255.936,7.600 256.566,7.600 257.200 C 7.600 257.834,7.780 258.464,8.000 258.600 C 8.220 258.736,8.400 259.266,8.400 259.778 C 8.400 261.011,9.523 264.798,10.720 267.600 C 10.955 268.150,11.376 269.320,11.655 270.200 C 11.935 271.080,12.307 271.971,12.482 272.180 C 12.657 272.389,12.800 272.974,12.800 273.480 C 12.800 273.986,12.980 274.400,13.200 274.400 C 13.420 274.400,13.600 274.760,13.600 275.200 C 13.600 275.640,13.747 276.000,13.928 276.000 C 14.108 276.000,14.500 276.900,14.800 278.000 C 15.100 279.100,15.492 280.000,15.672 280.000 C 15.853 280.000,16.000 280.360,16.000 280.800 C 16.000 281.240,16.180 281.600,16.400 281.600 C 16.620 281.600,16.800 281.960,16.800 282.400 C 16.800 282.840,16.980 283.200,17.200 283.200 C 17.420 283.200,17.600 283.639,17.600 284.176 C 17.600 284.713,17.780 285.264,18.000 285.400 C 18.220 285.536,18.400 286.007,18.400 286.447 C 18.400 286.887,18.580 287.136,18.800 287.000 C 19.020 286.864,19.200 287.123,19.200 287.576 C 19.200 288.029,19.380 288.400,19.600 288.400 C 19.820 288.400,20.000 288.634,20.000 288.920 C 20.000 289.656,20.941 291.593,21.300 291.597 C 21.465 291.599,21.600 291.945,21.600 292.367 C 21.600 292.788,21.735 293.193,21.900 293.267 C 22.065 293.340,22.633 294.255,23.163 295.300 C 23.692 296.345,24.277 297.200,24.463 297.200 C 24.648 297.200,24.800 297.560,24.800 298.000 C 24.800 298.440,24.980 298.800,25.200 298.800 C 25.420 298.800,25.600 299.087,25.600 299.438 C 25.600 300.121,26.694 302.256,27.474 303.095 C 27.734 303.375,28.062 303.964,28.201 304.402 C 28.340 304.841,28.622 305.200,28.827 305.200 C 29.032 305.200,29.200 305.470,29.200 305.800 C 29.200 306.130,29.380 306.400,29.600 306.400 C 29.820 306.400,30.000 306.694,30.000 307.053 C 30.000 307.412,30.316 307.997,30.703 308.353 C 31.089 308.709,31.660 309.495,31.970 310.100 C 32.281 310.705,32.685 311.200,32.868 311.200 C 33.050 311.200,33.200 311.520,33.200 311.912 C 33.200 312.303,33.560 312.883,34.000 313.200 C 34.440 313.517,34.800 314.057,34.800 314.400 C 34.800 314.743,35.160 315.283,35.600 315.600 C 36.040 315.917,36.400 316.417,36.400 316.712 C 36.400 317.006,36.580 317.136,36.800 317.000 C 37.020 316.864,37.200 317.084,37.200 317.488 C 37.200 317.893,37.560 318.483,38.000 318.800 C 38.440 319.117,38.800 319.707,38.800 320.112 C 38.800 320.516,38.980 320.736,39.200 320.600 C 39.420 320.464,39.600 320.594,39.600 320.888 C 39.600 321.183,39.960 321.683,40.400 322.000 C 40.840 322.317,41.200 322.817,41.200 323.112 C 41.200 323.406,41.380 323.536,41.600 323.400 C 41.820 323.264,42.000 323.433,42.000 323.776 C 42.000 324.119,42.210 324.400,42.467 324.400 C 42.723 324.400,42.824 324.509,42.691 324.642 C 42.558 324.776,42.888 325.324,43.424 325.861 C 43.961 326.397,44.400 327.003,44.400 327.208 C 44.400 327.412,45.167 328.349,46.105 329.289 C 47.043 330.230,48.255 331.630,48.799 332.400 C 49.560 333.479,54.246 338.269,58.104 341.913 C 58.271 342.071,60.194 344.045,62.376 346.300 C 64.559 348.555,66.502 350.400,66.694 350.400 C 66.886 350.400,68.165 351.480,69.535 352.800 C 70.905 354.120,72.173 355.200,72.354 355.200 C 72.534 355.200,73.248 355.742,73.941 356.403 C 74.633 357.065,75.200 357.517,75.200 357.407 C 75.200 357.217,75.496 357.444,77.934 359.500 C 78.520 359.994,79.146 360.399,79.324 360.400 C 79.502 360.400,79.519 360.608,79.362 360.862 C 79.193 361.136,79.251 361.215,79.506 361.058 C 79.742 360.912,80.175 361.025,80.468 361.309 C 80.760 361.594,81.630 362.262,82.400 362.794 C 83.170 363.327,84.091 364.086,84.447 364.481 C 84.803 364.876,85.348 365.200,85.659 365.200 C 85.969 365.200,86.483 365.560,86.800 366.000 C 87.117 366.440,87.657 366.800,88.000 366.800 C 88.343 366.800,88.883 367.160,89.200 367.600 C 89.517 368.040,90.014 368.400,90.305 368.400 C 90.596 368.400,91.220 368.760,91.692 369.200 C 92.164 369.640,92.787 370.000,93.075 370.000 C 93.364 370.000,93.600 370.180,93.600 370.400 C 93.600 370.620,93.793 370.800,94.028 370.800 C 94.263 370.800,95.241 371.340,96.200 372.000 C 97.159 372.660,98.137 373.200,98.372 373.200 C 98.607 373.200,98.800 373.359,98.800 373.553 C 98.800 373.897,100.296 374.530,100.900 374.443 C 101.065 374.419,101.200 374.580,101.200 374.800 C 101.200 375.020,101.560 375.200,102.000 375.200 C 102.440 375.200,102.800 375.380,102.800 375.600 C 102.800 375.820,103.078 376.000,103.417 376.000 C 103.756 376.000,104.420 376.360,104.892 376.800 C 105.364 377.240,106.077 377.600,106.475 377.600 C 106.874 377.600,107.200 377.780,107.200 378.000 C 107.200 378.220,107.470 378.400,107.800 378.400 C 108.130 378.400,108.400 378.580,108.400 378.800 C 108.400 379.020,108.760 379.200,109.200 379.200 C 109.640 379.200,110.000 379.380,110.000 379.600 C 110.000 379.820,110.225 380.000,110.500 379.999 C 110.775 379.998,111.720 380.350,112.600 380.781 C 113.480 381.212,114.785 381.796,115.500 382.080 C 116.215 382.363,116.800 382.731,116.800 382.898 C 116.800 383.064,117.160 383.200,117.600 383.200 C 118.040 383.200,118.400 383.380,118.400 383.600 C 118.400 383.820,118.672 384.000,119.005 384.000 C 119.338 384.000,119.923 384.164,120.305 384.365 C 121.440 384.960,124.976 386.179,125.300 386.086 C 125.465 386.039,125.600 386.231,125.600 386.513 C 125.600 386.795,126.077 387.065,126.660 387.113 C 127.242 387.161,127.954 387.396,128.240 387.633 C 128.527 387.871,129.130 387.949,129.581 387.806 C 130.149 387.626,130.400 387.724,130.400 388.126 C 130.400 388.446,130.760 388.801,131.201 388.916 C 131.641 389.031,131.900 388.962,131.777 388.763 C 131.654 388.563,131.724 388.400,131.934 388.400 C 132.143 388.400,132.428 388.696,132.567 389.057 C 132.705 389.419,132.928 389.605,133.062 389.471 C 133.196 389.338,133.687 389.433,134.153 389.683 C 135.121 390.203,137.260 390.421,136.982 389.970 C 136.665 389.457,136.583 280.800,136.900 280.800 C 137.065 280.800,137.200 280.950,137.200 281.132 C 137.200 281.449,138.112 281.962,140.100 282.763 C 142.626 283.781,144.467 284.397,144.908 284.372 C 145.179 284.356,144.680 284.081,143.800 283.760 C 126.263 277.368,117.884 259.093,124.973 242.696 C 125.746 240.908,126.339 239.433,126.289 239.419 C 116.965 236.647,105.786 225.433,101.149 214.200 C 95.649 200.876,100.355 182.129,111.835 171.637 C 115.887 167.934,124.736 162.430,126.676 162.406 C 127.683 162.393,127.547 161.566,126.010 158.338 C 119.738 145.165,123.345 130.026,134.800 121.449 C 137.099 119.727,137.602 119.419,141.200 117.513 C 142.410 116.872,143.040 116.434,142.600 116.540 C 141.533 116.795,139.051 117.749,138.800 118.000 C 138.690 118.110,138.195 118.427,137.700 118.703 L 136.800 119.207 136.800 65.177 C 136.800 11.816,136.750 9.600,135.537 9.600 C 135.252 9.600,135.273 9.807,135.600 10.200 C 136.006 10.689,135.984 10.800,135.478 10.800 C 135.138 10.800,134.776 10.485,134.676 10.100 C 134.575 9.715,134.472 9.625,134.446 9.900 M146.600 115.200 C 146.096 115.417,146.022 115.544,146.400 115.544 C 146.730 115.544,147.360 115.389,147.800 115.200 C 148.304 114.983,148.378 114.856,148.000 114.856 C 147.670 114.856,147.040 115.011,146.600 115.200 M133.429 161.429 C 129.871 164.986,139.619 172.862,147.800 173.040 L 151.800 173.127 147.925 172.836 C 143.876 172.532,140.449 171.243,137.926 169.075 C 137.052 168.323,135.942 162.000,136.685 162.000 C 136.741 162.000,137.644 162.823,138.693 163.828 C 139.742 164.834,141.230 165.944,142.000 166.295 C 142.770 166.647,143.535 167.005,143.700 167.091 C 143.865 167.177,144.000 167.155,144.000 167.042 C 144.000 166.930,143.325 166.519,142.500 166.130 C 141.675 165.741,139.944 164.382,138.653 163.111 C 136.154 160.651,134.681 160.176,133.429 161.429 M145.200 167.600 C 145.750 167.776,146.650 167.917,147.200 167.913 C 148.098 167.906,148.078 167.874,147.000 167.600 C 145.308 167.169,143.856 167.169,145.200 167.600 M128.889 209.823 C 126.605 211.423,129.639 216.232,135.821 220.812 C 138.063 222.472,142.770 224.964,143.079 224.654 C 143.189 224.545,142.495 224.091,141.539 223.645 C 137.326 221.682,136.600 220.871,136.600 218.127 C 136.600 215.899,136.662 215.711,137.231 216.227 C 137.579 216.542,138.074 216.800,138.331 216.800 C 138.589 216.800,138.800 216.959,138.800 217.153 C 138.800 217.556,143.204 219.729,143.474 219.460 C 143.571 219.363,142.642 218.790,141.409 218.187 C 139.917 217.457,137.844 215.773,135.204 213.145 C 131.148 209.110,130.439 208.737,128.889 209.823 M144.600 220.000 C 145.040 220.189,145.760 220.338,146.200 220.332 C 146.843 220.323,146.804 220.257,146.000 220.000 C 144.632 219.562,143.581 219.562,144.600 220.000 M144.600 225.200 C 145.796 225.714,146.795 225.714,146.000 225.200 C 145.670 224.987,145.040 224.822,144.600 224.834 L 143.800 224.856 144.600 225.200 M152.400 251.725 C 152.400 251.794,152.985 252.379,153.700 253.025 L 155.000 254.200 153.825 252.900 C 152.730 251.688,152.400 251.416,152.400 251.725 M146.200 284.800 C 146.640 284.989,147.270 285.144,147.600 285.144 C 147.978 285.144,147.904 285.017,147.400 284.800 C 146.960 284.611,146.330 284.456,146.000 284.456 C 145.622 284.456,145.696 284.583,146.200 284.800 " stroke="none" fill="#c07eb8" fill-rule="evenodd"></path><path id="path4" d="M178.802 0.299 C 176.933 0.374,175.232 0.608,175.022 0.818 C 174.812 1.028,173.452 1.200,172.000 1.200 C 170.548 1.200,169.189 1.370,168.980 1.577 C 168.771 1.785,167.655 1.997,166.500 2.049 C 165.345 2.101,164.400 2.291,164.400 2.471 C 164.400 2.652,163.601 2.800,162.624 2.800 C 161.647 2.800,160.736 2.980,160.600 3.200 C 160.464 3.420,159.553 3.600,158.576 3.600 C 157.599 3.600,156.800 3.780,156.800 4.000 C 156.800 4.220,155.889 4.400,154.776 4.400 C 153.529 4.400,152.848 4.553,153.000 4.800 C 153.149 5.041,152.612 5.200,151.647 5.200 C 150.767 5.200,149.936 5.380,149.800 5.600 C 149.664 5.820,149.023 6.000,148.376 6.000 C 147.729 6.000,147.200 6.180,147.200 6.400 C 147.200 6.620,146.480 6.800,145.600 6.800 C 144.720 6.800,144.000 6.980,144.000 7.200 C 144.000 7.420,143.370 7.600,142.600 7.600 C 141.830 7.600,141.200 7.780,141.200 8.000 C 141.200 8.220,140.705 8.403,140.100 8.406 C 139.210 8.411,139.115 8.494,139.600 8.841 C 140.082 9.185,140.023 9.231,139.300 9.072 C 138.773 8.957,138.397 9.067,138.394 9.337 C 138.389 9.676,138.309 9.679,138.094 9.350 C 137.531 8.490,135.897 9.461,136.382 10.367 C 136.667 10.898,136.800 28.412,136.800 65.177 L 136.800 119.207 137.700 118.703 C 138.195 118.427,138.690 118.110,138.800 118.000 C 139.580 117.220,147.260 114.930,150.126 114.623 C 153.048 114.310,154.000 113.697,154.000 112.129 C 154.000 109.113,156.405 102.916,159.136 98.894 C 171.057 81.340,197.870 79.314,212.619 94.852 C 217.220 99.699,217.986 101.615,217.994 108.300 L 218.000 113.200 224.300 113.111 L 230.600 113.022 224.500 112.901 L 218.400 112.779 218.400 107.002 C 218.400 101.317,217.935 99.168,216.454 98.000 C 214.753 96.659,214.800 98.062,214.795 48.538 C 214.792 22.832,214.681 1.395,214.548 0.900 L 214.307 0.000 198.253 0.081 C 189.424 0.126,180.671 0.224,178.802 0.299 M215.200 0.600 C 215.200 0.836,215.530 1.029,215.933 1.029 C 216.337 1.029,216.667 0.836,216.667 0.600 C 216.667 0.364,216.337 0.171,215.933 0.171 C 215.530 0.171,215.200 0.364,215.200 0.600 M258.400 102.800 C 258.950 102.976,259.760 103.120,260.200 103.120 C 260.833 103.120,260.792 103.054,260.000 102.800 C 259.450 102.624,258.640 102.480,258.200 102.480 C 257.567 102.480,257.608 102.546,258.400 102.800 M247.074 106.371 C 245.938 107.455,245.097 108.408,245.204 108.489 C 245.312 108.570,246.334 107.683,247.476 106.518 C 250.092 103.850,249.821 103.751,247.074 106.371 M243.867 110.667 C 243.720 110.813,243.611 111.308,243.625 111.767 C 243.649 112.533,243.682 112.523,244.034 111.642 C 244.426 110.663,244.344 110.189,243.867 110.667 M269.901 115.000 C 270.014 116.540,270.172 117.875,270.253 117.967 C 270.547 118.300,270.335 113.778,270.020 113.000 C 269.835 112.542,269.784 113.398,269.901 115.000 M158.277 114.680 C 153.815 115.837,159.509 127.981,166.324 131.840 C 175.517 137.046,194.053 135.499,188.214 130.013 C 187.120 128.985,186.480 128.924,181.704 129.392 C 171.225 130.418,161.600 124.135,161.600 116.270 C 161.600 115.611,160.108 114.368,159.411 114.446 C 159.185 114.472,158.675 114.577,158.277 114.680 M218.000 144.806 L 218.000 170.811 230.500 170.706 L 243.000 170.600 243.200 163.737 C 243.310 159.963,243.265 156.958,243.100 157.061 C 242.935 157.163,242.800 160.235,242.800 163.887 L 242.800 170.527 234.700 170.265 C 230.245 170.120,224.755 170.002,222.500 170.001 L 218.400 170.000 218.400 144.607 L 218.400 119.214 227.900 119.100 L 237.400 118.985 227.700 118.892 L 218.000 118.800 218.000 144.806 M246.077 124.371 C 246.617 125.125,247.675 126.181,248.429 126.717 L 249.800 127.693 248.600 126.654 C 247.940 126.083,246.882 125.028,246.248 124.308 L 245.097 123.000 246.077 124.371 M266.226 125.113 C 264.815 126.803,264.788 126.875,265.960 125.800 C 267.071 124.782,268.288 123.170,267.914 123.213 C 267.851 123.220,267.092 124.075,266.226 125.113 M258.200 129.200 C 257.122 129.474,257.102 129.506,258.000 129.513 C 258.550 129.517,259.450 129.376,260.000 129.200 C 261.344 128.769,259.892 128.769,258.200 129.200 M286.500 145.087 C 287.105 145.178,288.095 145.178,288.700 145.087 C 289.305 144.995,288.810 144.920,287.600 144.920 C 286.390 144.920,285.895 144.995,286.500 145.087 M244.941 155.197 C 244.468 155.388,243.939 155.782,243.764 156.072 C 243.515 156.486,243.570 156.500,244.023 156.136 C 244.340 155.881,245.230 155.492,246.000 155.272 C 246.770 155.052,247.040 154.867,246.600 154.861 C 246.160 154.856,245.413 155.007,244.941 155.197 M255.700 161.099 C 259.165 161.166,264.835 161.166,268.300 161.099 C 271.765 161.033,268.930 160.978,262.000 160.978 C 255.070 160.978,252.235 161.033,255.700 161.099 M163.587 162.624 C 153.413 169.248,144.770 169.668,138.693 163.831 C 137.644 162.824,136.741 162.000,136.685 162.000 C 136.630 162.000,136.655 163.393,136.741 165.095 C 136.922 168.692,137.227 169.083,141.560 171.280 C 150.692 175.910,173.827 167.856,168.502 161.900 C 167.544 160.829,165.992 161.058,163.587 162.624 M248.958 166.600 C 248.958 169.680,249.021 170.887,249.097 169.282 C 249.173 167.678,249.173 165.158,249.096 163.682 C 249.019 162.207,248.957 163.520,248.958 166.600 M248.248 175.383 L 247.588 176.390 232.894 176.495 L 218.200 176.600 218.093 186.700 L 217.986 196.800 230.793 196.800 C 237.837 196.800,243.599 196.665,243.599 196.500 C 243.598 196.335,238.063 196.135,231.299 196.056 C 224.534 195.977,218.865 195.831,218.700 195.732 C 218.535 195.634,218.400 191.333,218.400 186.176 L 218.400 176.800 232.930 176.800 L 247.461 176.800 248.399 175.802 C 248.914 175.252,249.240 174.707,249.122 174.589 C 249.005 174.471,248.611 174.828,248.248 175.383 M174.639 182.055 C 168.263 184.210,159.957 193.559,159.309 199.309 C 158.928 202.692,162.408 203.562,163.939 200.467 C 169.622 188.982,177.011 184.637,185.838 187.590 C 190.388 189.112,193.159 187.204,190.960 184.064 C 189.136 181.460,179.799 180.311,174.639 182.055 M255.100 185.889 C 255.815 185.978,256.985 185.978,257.700 185.889 C 258.415 185.801,257.830 185.728,256.400 185.728 C 254.970 185.728,254.385 185.801,255.100 185.889 M250.056 187.245 C 249.316 187.679,248.056 188.680,247.256 189.470 L 245.800 190.906 247.600 189.498 C 248.590 188.724,250.117 187.710,250.994 187.245 C 251.871 186.780,252.321 186.413,251.994 186.428 C 251.667 186.444,250.795 186.811,250.056 187.245 M244.401 193.199 C 243.886 194.298,243.540 195.261,243.632 195.338 C 243.724 195.416,244.266 194.516,244.835 193.339 C 245.404 192.163,245.750 191.200,245.603 191.200 C 245.457 191.200,244.915 192.099,244.401 193.199 M269.896 198.283 C 270.121 201.442,270.332 201.858,270.362 199.200 C 270.376 197.990,270.240 196.767,270.060 196.483 C 269.876 196.194,269.804 196.989,269.896 198.283 M218.000 205.609 L 218.000 209.218 216.322 211.109 C 205.577 223.219,201.066 224.765,188.290 220.719 C 183.903 219.330,182.646 219.479,182.152 221.448 C 181.426 224.343,188.202 227.106,197.000 227.502 C 204.705 227.849,208.485 226.456,214.107 221.196 C 218.143 217.420,218.000 217.464,218.000 220.000 L 218.000 222.000 232.500 222.013 C 248.357 222.027,247.902 221.960,248.978 224.440 C 249.303 225.188,249.576 225.563,249.584 225.274 C 249.608 224.463,248.798 223.074,247.853 222.309 C 247.081 221.683,245.646 221.617,232.720 221.609 L 218.440 221.600 218.320 219.332 C 218.177 216.628,217.759 216.379,216.070 217.993 L 214.800 219.207 214.800 216.965 C 214.800 214.516,215.503 212.880,217.300 211.142 C 218.341 210.136,218.400 209.885,218.400 206.440 L 218.400 202.800 219.900 202.746 C 220.725 202.716,226.440 202.570,232.600 202.421 L 243.800 202.150 230.900 202.075 L 218.000 202.000 218.000 205.609 M243.609 203.089 C 243.595 203.859,245.318 207.200,245.729 207.200 C 245.932 207.200,245.903 206.965,245.664 206.677 C 245.425 206.389,244.867 205.354,244.424 204.377 C 243.980 203.400,243.614 202.820,243.609 203.089 M266.000 208.600 C 265.028 209.590,264.323 210.400,264.433 210.400 C 264.543 210.400,265.428 209.590,266.400 208.600 C 267.372 207.610,268.077 206.800,267.967 206.800 C 267.857 206.800,266.972 207.610,266.000 208.600 M246.800 208.561 C 248.030 209.943,250.956 212.003,251.672 211.991 C 251.962 211.986,251.615 211.693,250.899 211.340 C 250.183 210.988,248.743 209.965,247.699 209.068 C 246.582 208.109,246.212 207.900,246.800 208.561 M253.905 212.683 C 254.402 212.779,255.122 212.775,255.505 212.675 C 255.887 212.575,255.480 212.496,254.600 212.501 C 253.720 212.505,253.407 212.587,253.905 212.683 M257.505 212.683 C 258.002 212.779,258.722 212.775,259.105 212.675 C 259.487 212.575,259.080 212.496,258.200 212.501 C 257.320 212.505,257.007 212.587,257.505 212.683 M136.600 218.127 C 136.600 223.456,147.274 227.274,155.188 224.776 C 160.214 223.190,162.977 221.293,163.121 219.329 C 163.309 216.765,160.659 215.367,159.027 217.170 C 155.351 221.232,143.405 221.432,139.187 217.502 C 138.773 217.116,138.305 216.800,138.148 216.800 C 137.991 216.800,137.579 216.542,137.231 216.227 C 136.662 215.711,136.600 215.899,136.600 218.127 M248.982 232.099 L 249.000 237.400 258.000 237.411 L 267.000 237.423 258.112 237.304 L 249.223 237.185 249.093 231.992 L 248.964 226.799 248.982 232.099 M218.272 227.861 C 218.123 228.011,218.000 236.762,218.000 247.309 L 218.000 266.484 216.500 266.289 C 215.675 266.181,213.110 265.786,210.800 265.412 C 200.394 263.722,192.498 268.218,186.507 279.245 C 184.261 283.379,184.520 286.000,187.177 286.000 C 189.135 286.000,189.646 285.572,190.823 282.948 C 195.434 272.672,201.070 269.453,211.399 271.199 C 218.308 272.367,217.945 272.089,218.085 276.306 L 218.200 279.800 230.574 279.906 C 237.380 279.964,243.086 279.874,243.255 279.706 C 243.424 279.538,240.646 279.459,237.081 279.532 C 233.517 279.604,227.855 279.540,224.500 279.390 L 218.400 279.116 218.400 275.358 L 218.400 271.600 217.171 271.600 C 215.456 271.600,214.800 270.778,214.800 268.629 C 214.800 266.788,215.073 266.433,215.874 267.234 C 216.112 267.472,216.733 267.607,217.254 267.534 L 218.200 267.400 218.304 247.900 L 218.408 228.400 230.604 228.400 L 242.800 228.400 242.800 234.814 C 242.800 241.269,243.193 243.200,244.508 243.200 C 244.737 243.200,244.581 242.822,244.162 242.359 C 243.494 241.623,243.375 240.673,243.200 234.659 L 243.000 227.800 230.772 227.694 C 224.047 227.636,218.422 227.711,218.272 227.861 M149.046 239.386 C 147.303 242.046,149.920 249.159,154.049 252.981 C 158.644 257.235,162.999 258.597,172.018 258.599 C 179.253 258.600,180.400 258.225,180.400 255.853 C 180.400 253.478,179.785 253.278,172.600 253.314 C 161.029 253.372,155.576 250.091,153.408 241.765 C 152.482 238.213,150.517 237.141,149.046 239.386 M245.341 243.474 C 245.679 243.812,274.736 243.821,274.527 243.483 C 274.420 243.309,267.764 243.190,259.736 243.220 C 251.708 243.249,245.230 243.364,245.341 243.474 M296.975 249.700 L 295.800 251.000 297.100 249.825 C 297.815 249.179,298.400 248.594,298.400 248.525 C 298.400 248.216,298.070 248.488,296.975 249.700 M286.900 253.876 C 287.285 253.976,287.915 253.976,288.300 253.876 C 288.685 253.775,288.370 253.693,287.600 253.693 C 286.830 253.693,286.515 253.775,286.900 253.876 M253.800 269.215 C 253.044 269.418,253.562 269.454,255.200 269.315 C 256.630 269.193,257.875 269.028,257.967 268.947 C 258.270 268.680,255.022 268.889,253.800 269.215 M250.000 270.636 C 247.832 271.873,246.976 272.616,245.894 274.200 C 245.331 275.025,245.751 274.757,247.238 273.342 C 248.427 272.210,250.120 270.913,251.000 270.460 C 251.880 270.006,252.420 269.630,252.200 269.622 C 251.980 269.615,250.990 270.072,250.000 270.636 M261.633 270.128 C 262.269 270.615,264.800 271.936,264.800 271.781 C 264.800 271.513,262.282 270.003,261.833 270.001 C 261.632 270.001,261.542 270.057,261.633 270.128 M269.800 282.400 C 269.800 284.118,269.932 285.316,270.094 285.062 C 270.256 284.808,270.388 283.610,270.388 282.400 C 270.388 281.190,270.256 279.992,270.094 279.738 C 269.932 279.484,269.800 280.682,269.800 282.400 M136.704 334.989 C 136.788 378.500,136.709 389.140,136.303 388.984 C 136.026 388.878,135.548 389.198,135.243 389.695 C 134.699 390.580,134.705 390.584,135.486 389.890 C 136.204 389.252,136.338 389.243,136.799 389.799 C 137.237 390.327,137.206 390.377,136.591 390.141 C 136.132 389.965,135.963 390.017,136.128 390.284 C 136.513 390.906,137.998 391.205,138.012 390.663 C 138.019 390.408,138.208 390.515,138.432 390.900 C 138.696 391.353,139.327 391.600,140.220 391.600 C 140.979 391.600,141.600 391.780,141.600 392.000 C 141.600 392.220,142.129 392.400,142.776 392.400 C 143.423 392.400,144.064 392.580,144.200 392.800 C 144.336 393.020,145.077 393.200,145.847 393.200 C 146.701 393.200,147.148 393.360,146.994 393.610 C 146.855 393.835,146.889 393.994,147.070 393.963 C 148.246 393.758,150.410 394.061,150.200 394.400 C 150.053 394.638,150.529 394.800,151.376 394.800 C 152.159 394.800,152.800 394.946,152.800 395.125 C 152.800 395.304,153.655 395.494,154.700 395.547 C 155.745 395.600,156.660 395.813,156.733 396.021 C 156.807 396.230,157.651 396.400,158.610 396.400 C 159.568 396.400,160.464 396.580,160.600 396.800 C 160.736 397.020,161.647 397.200,162.624 397.200 C 163.601 397.200,164.400 397.349,164.400 397.532 C 164.400 397.714,165.435 397.904,166.700 397.954 C 167.965 398.004,169.060 398.215,169.133 398.422 C 169.207 398.630,170.476 398.800,171.953 398.800 C 173.509 398.800,174.842 399.002,175.120 399.280 C 175.878 400.038,213.434 400.308,212.978 399.551 C 212.730 399.138,212.832 399.150,213.388 399.600 C 213.954 400.058,214.170 400.081,214.298 399.700 C 214.510 399.073,215.482 399.045,215.687 399.660 C 215.771 399.913,216.101 400.027,216.420 399.912 C 216.829 399.766,216.675 399.552,215.900 399.188 L 214.800 398.672 214.800 350.764 C 214.800 312.987,214.906 302.745,215.300 302.329 C 217.586 299.912,218.400 296.996,218.400 291.228 L 218.400 285.611 231.100 285.500 L 243.800 285.388 230.900 285.294 L 218.000 285.200 218.000 290.405 C 218.000 293.268,217.843 295.923,217.650 296.305 C 215.895 299.791,215.242 300.888,213.784 302.800 C 196.755 325.134,158.865 316.849,153.727 289.669 L 153.039 286.032 151.100 285.616 C 150.033 285.387,148.742 285.200,148.231 285.200 C 147.384 285.200,142.130 283.659,140.200 282.845 C 138.147 281.978,137.200 281.438,137.200 281.132 C 137.200 280.950,137.065 280.800,136.900 280.800 C 136.735 280.800,136.647 305.185,136.704 334.989 M243.628 286.676 C 243.613 287.158,243.780 287.664,244.000 287.800 C 244.473 288.092,244.473 287.701,244.000 286.600 C 243.669 285.829,243.655 285.831,243.628 286.676 M244.421 288.538 C 244.322 290.133,250.466 295.600,252.357 295.600 C 252.687 295.600,252.037 295.141,250.912 294.581 C 248.984 293.620,246.649 291.451,245.121 289.200 C 244.748 288.650,244.433 288.352,244.421 288.538 M263.611 293.820 C 262.847 294.359,262.397 294.799,262.611 294.798 C 262.825 294.797,263.540 294.353,264.200 293.812 C 265.741 292.549,265.405 292.553,263.611 293.820 M259.400 295.600 C 258.896 295.817,258.822 295.944,259.200 295.944 C 259.530 295.944,260.160 295.789,260.600 295.600 C 261.104 295.383,261.178 295.256,260.800 295.256 C 260.470 295.256,259.840 295.411,259.400 295.600 M253.800 296.015 C 254.574 296.333,258.704 296.549,258.367 296.254 C 258.275 296.174,257.030 296.013,255.600 295.898 C 254.073 295.774,253.330 295.822,253.800 296.015 " stroke="none" fill="#948cc4" fill-rule="evenodd"></path></g></svg>